<?xml version="1.0" standalone="no"?>
<!DOCTYPE svg PUBLIC "-//W3C//DTD SVG 20010904//EN"
 "http://www.w3.org/TR/2001/REC-SVG-20010904/DTD/svg10.dtd">
<svg version="1.0" xmlns="http://www.w3.org/2000/svg"
 width="238.000000pt" height="238.000000pt" viewBox="0 0 238.000000 238.000000"
 preserveAspectRatio="xMidYMid meet">
<metadata>
Created by potrace 1.14, written by Peter Selinger 2001-2017
</metadata>
<g transform="translate(0.000000,238.000000) scale(0.100000,-0.100000)"
fill="#000000" stroke="none">
<path d="M794 1551 c-46 -11 -115 -52 -136 -82 -40 -53 -41 -137 -4 -194 23
-35 89 -81 144 -101 119 -42 171 -72 178 -100 4 -17 2 -37 -7 -53 -40 -70
-199 -35 -199 44 0 25 -1 25 -85 25 l-84 0 6 -32 c14 -81 58 -133 143 -172 68
-30 217 -29 283 3 66 33 99 79 105 146 9 110 -51 176 -219 241 -107 40 -129
56 -129 94 0 41 33 65 92 65 42 0 53 -4 74 -28 13 -15 24 -35 24 -43 0 -11 17
-14 80 -14 76 0 80 1 80 23 -1 39 -37 103 -73 132 -64 48 -180 68 -273 46z"/>
<path d="M50 1209 l0 -341 153 4 c182 4 230 20 302 100 59 66 80 130 79 243
-1 123 -26 186 -100 254 -75 69 -120 81 -296 81 l-138 0 0 -341z m261 211 c73
-20 109 -89 109 -210 0 -88 -16 -138 -55 -177 -29 -29 -39 -33 -89 -33 l-56 0
0 215 0 215 28 0 c15 0 43 -5 63 -10z"/>
<path d="M1440 1460 l0 -70 30 0 c17 0 39 9 50 20 11 11 20 33 20 50 0 17 -9
39 -20 50 -11 11 -33 20 -50 20 l-30 0 0 -70z m74 28 c15 -25 -4 -72 -32 -76
-20 -3 -22 1 -22 48 0 47 2 51 21 48 12 -2 27 -11 33 -20z"/>
<path d="M1573 1518 c2 -7 10 -39 17 -71 7 -32 18 -56 23 -54 6 2 17 25 25 53
8 27 16 45 18 39 2 -5 8 -29 14 -52 13 -53 26 -55 39 -5 20 74 24 102 13 102
-6 0 -14 -20 -18 -45 -8 -56 -19 -57 -30 -3 -13 59 -30 58 -45 -4 -13 -56 -16
-54 -33 25 -4 15 -11 27 -17 27 -6 0 -9 -6 -6 -12z"/>
<path d="M1770 1460 c0 -40 4 -70 10 -70 6 0 10 30 10 70 0 40 -4 70 -10 70
-6 0 -10 -30 -10 -70z"/>
<path d="M1840 1460 l0 -70 30 0 c40 0 70 31 70 73 0 42 -26 67 -68 67 l-32 0
0 -70z m74 34 c17 -43 -1 -84 -36 -84 -15 0 -18 9 -18 50 0 46 2 50 24 50 13
0 27 -7 30 -16z"/>
<path d="M2013 1513 c-3 -10 -14 -40 -25 -66 -21 -55 -21 -57 -9 -57 5 0 13 9
16 20 4 14 15 20 35 20 20 0 31 -6 35 -20 3 -11 11 -20 16 -20 11 0 7 18 -21
90 -19 49 -37 61 -47 33z m31 -39 c10 -26 7 -34 -15 -34 -15 0 -19 4 -15 16 3
9 6 20 6 25 0 15 17 10 24 -7z"/>
<path d="M2130 1515 c-18 -22 -5 -44 35 -61 40 -16 47 -44 12 -44 -13 0 -28 5
-35 12 -6 6 -15 8 -19 4 -11 -11 26 -36 52 -36 52 0 61 54 13 75 -43 18 -50
25 -37 42 15 17 24 17 44 -3 20 -20 33 -11 15 11 -16 19 -64 19 -80 0z"/>
<path d="M2293 1513 c-3 -10 -14 -40 -25 -66 -21 -55 -21 -57 -9 -57 5 0 13 9
16 20 4 14 15 20 35 20 20 0 31 -6 35 -20 3 -11 11 -20 16 -20 11 0 9 9 -20
85 -20 53 -37 67 -48 38z m27 -32 c0 -5 3 -16 6 -25 4 -12 0 -16 -15 -16 -22
0 -25 8 -15 34 7 17 24 22 24 7z"/>
<path d="M1440 1275 c-18 -22 -5 -44 35 -61 40 -16 47 -44 12 -44 -13 0 -28 5
-35 12 -6 6 -15 8 -19 4 -11 -11 26 -36 52 -36 52 0 61 54 13 75 -43 18 -50
25 -37 42 15 17 24 17 44 -3 20 -20 33 -11 15 11 -16 19 -64 19 -80 0z"/>
<path d="M1593 1273 c-3 -10 -15 -40 -25 -67 -20 -53 -16 -73 8 -38 8 12 24
22 34 22 10 0 26 -10 34 -22 26 -37 28 -13 3 53 -25 66 -42 83 -54 52z m31
-39 c10 -26 7 -34 -15 -34 -15 0 -19 4 -15 16 3 9 6 20 6 25 0 15 17 10 24 -7z"/>
<path d="M1700 1220 c0 -44 4 -70 11 -70 7 0 10 18 7 50 -3 55 5 54 25 -5 8
-21 18 -40 23 -42 5 -2 18 21 29 49 l20 53 3 -52 c5 -79 22 -64 22 18 0 60 -2
70 -16 67 -9 -2 -24 -22 -33 -45 -9 -23 -19 -44 -22 -48 -4 -3 -15 17 -25 45
-26 74 -44 66 -44 -20z"/>
<path d="M1880 1275 c-18 -22 -5 -44 36 -61 19 -8 34 -20 31 -27 -5 -17 -48
-21 -58 -6 -4 8 -11 10 -15 6 -12 -12 18 -37 45 -37 60 0 69 51 14 77 -20 10
-38 23 -40 29 -7 20 29 25 49 8 21 -20 37 -11 18 11 -16 19 -64 19 -80 0z"/>
<path d="M2036 1282 c-7 -12 -46 -116 -46 -124 0 -16 19 -7 25 12 9 27 49 26
68 -2 27 -41 27 -13 1 55 -24 63 -36 78 -48 59z m29 -59 c5 -19 2 -23 -14 -23
-23 0 -24 3 -15 38 7 26 18 20 29 -15z"/>
<path d="M2130 1221 c0 -68 15 -99 22 -44 4 38 25 40 45 4 10 -17 24 -31 31
-31 9 0 8 7 -4 25 -15 22 -15 29 -3 51 19 37 2 58 -50 62 l-41 3 0 -70z m80
30 c0 -20 -32 -37 -50 -26 -5 3 -10 15 -10 26 0 14 7 19 30 19 23 0 30 -5 30
-19z"/>
<path d="M2277 1223 c-26 -71 -26 -94 0 -55 19 28 59 29 68 2 6 -19 25 -28 25
-12 0 22 -47 132 -56 132 -7 0 -23 -30 -37 -67z m52 -10 c1 -7 -8 -13 -19 -13
-23 0 -23 0 -9 37 10 26 12 27 19 8 5 -11 9 -26 9 -32z"/>
<path d="M1440 960 c0 -40 4 -70 10 -70 6 0 10 30 10 70 0 40 -4 70 -10 70 -6
0 -10 -30 -10 -70z"/>
<path d="M1480 960 c0 -40 4 -70 10 -70 6 0 10 20 10 45 0 25 3 45 8 45 4 0
19 -20 34 -45 15 -25 32 -45 38 -45 6 0 10 29 10 70 0 78 -17 96 -22 23 l-3
-48 -28 48 c-42 69 -57 63 -57 -23z"/>
<path d="M1610 960 l0 -70 35 0 c64 0 97 65 59 118 -11 16 -25 22 -55 22 l-39
0 0 -70z m80 25 c13 -34 -3 -75 -30 -75 -17 0 -20 6 -20 50 0 44 3 50 20 50
13 0 24 -10 30 -25z"/>
<path d="M1747 1012 c-21 -23 -22 -71 -1 -100 47 -67 135 24 90 93 -20 30 -65
34 -89 7z m68 -52 c0 -39 -3 -45 -22 -48 -28 -4 -46 29 -38 69 6 25 11 30 33
27 25 -3 27 -7 27 -48z"/>
<path d="M1860 960 c0 -56 3 -70 15 -70 11 0 15 12 15 48 l0 47 30 -47 c17
-27 35 -48 40 -48 6 0 10 30 10 70 0 78 -17 96 -22 23 l-3 -48 -28 48 c-41 69
-57 63 -57 -23z"/>
<path d="M1990 960 l0 -70 50 0 c28 0 50 5 50 10 0 6 -16 10 -35 10 -28 0 -35
4 -35 20 0 15 7 20 24 20 14 0 28 5 31 10 4 6 -7 10 -24 10 -24 0 -31 4 -31
20 0 15 7 20 29 20 17 0 33 5 36 10 4 6 -13 10 -44 10 l-51 0 0 -70z"/>
<path d="M2101 1011 c-13 -23 3 -46 42 -60 34 -13 36 -41 2 -41 -14 0 -25 5
-25 10 0 6 -7 10 -15 10 -18 0 -19 -12 -3 -28 25 -25 98 -5 98 27 0 12 -33 38
-57 45 -13 4 -23 13 -23 21 0 20 28 26 45 8 18 -18 30 -11 22 12 -9 22 -74 20
-86 -4z"/>
<path d="M2210 960 c0 -40 4 -70 10 -70 6 0 10 30 10 70 0 40 -4 70 -10 70 -6
0 -10 -30 -10 -70z"/>
<path d="M2271 965 c-22 -62 -22 -102 0 -62 13 22 58 22 75 0 24 -34 24 -6 0
58 -13 35 -30 65 -37 67 -9 2 -23 -21 -38 -63z m59 -17 c0 -4 -9 -8 -20 -8
-21 0 -24 8 -13 36 6 16 7 16 20 -2 7 -10 13 -21 13 -26z"/>
</g>
</svg>
